<svg width="20" height="20" viewBox="0 0 20 20" fill="none" xmlns="http://www.w3.org/2000/svg">
<path d="M6.34649 18.0009C13.7778 18.0009 17.8425 11.8439 17.8425 6.50491C17.8425 6.33008 17.8425 6.15591 17.8306 5.98261C18.6214 5.41063 19.3039 4.70255 19.8463 3.8912C19.109 4.21788 18.3267 4.43232 17.5256 4.52685C18.3691 4.02183 19.0004 3.22776 19.3019 2.29212C18.5087 2.76278 17.6412 3.0945 16.7364 3.27283C15.2062 1.64574 12.6468 1.56719 11.0197 3.09735C9.97025 4.08419 9.52518 5.55461 9.85077 6.95785C6.6025 6.79484 3.57567 5.26053 1.52408 2.73631C0.451684 4.58243 0.999372 6.94429 2.77503 8.12981C2.13194 8.11078 1.50308 7.93726 0.941167 7.62414C0.941167 7.64077 0.941167 7.65805 0.941167 7.67534C0.941605 9.5987 2.29737 11.2551 4.18266 11.6361C3.58792 11.7982 2.96365 11.8221 2.3582 11.7054C2.8875 13.3513 4.40431 14.4789 6.13293 14.5113C4.70212 15.6357 2.93477 16.246 1.11512 16.2443C0.793688 16.2436 0.47269 16.2241 0.153442 16.1858C2.0011 17.3716 4.15115 18.0004 6.34649 17.9976" fill="white"/>
</svg>
